<svg xmlns="http://www.w3.org/2000/svg" width="46" height="47" viewBox="0 0 46 47">
  <g fill="#05A6DF" transform="translate(0 -1)">
    <path d="M42.8809756,0.971162791 L5.35170732,0.971162791 C3.93804878,0.971162791 2.79365854,2.10976744 2.79365854,3.52744186 L2.79365854,33.3432558 C2.79365854,34.5488372 3.82585366,35.5311628 5.10487805,35.5311628 C6.37268293,35.5311628 7.40487805,34.56 7.41609756,33.3655814 C7.41609756,33.3655814 7.41609756,33.3544186 7.41609756,33.3544186 L7.41609756,16.4093023 L18.1756098,16.4093023 L18.1756098,12.0223256 L7.41609756,12.0223256 L7.41609756,11.1293023 C7.40487805,11.1293023 7.40487805,11.1293023 7.39365854,11.1404651 L7.39365854,7.30046512 C7.39365854,6.29581395 8.21268293,5.49209302 9.21121951,5.49209302 L39.1336585,5.49209302 C40.1434146,5.49209302 40.9512195,6.30697674 40.9512195,7.30046512 L40.9512195,38.612093 C40.9512195,39.6167442 40.1321951,40.4204651 39.1336585,40.4204651 L11.477561,40.4204651 L11.477561,40.3981395 L10.0639024,40.3981395 C9.2,38.6455814 7.39365854,37.44 5.30682927,37.44 C2.37853659,37.44 1.13686838e-13,39.8065116 1.13686838e-13,42.72 C1.13686838e-13,45.6334884 2.37853659,48 5.30682927,48 C7.4497561,48 9.2897561,46.7274419 10.1312195,44.9190698 L42.8809756,44.9190698 C44.2946341,44.9190698 45.4502439,43.7804651 45.4502439,42.3739535 L45.4502439,3.53860465 C45.4390244,2.12093023 44.2946341,0.971162791 42.8809756,0.971162791 Z M5.29560976,45.1869767 C3.88195122,45.1869767 2.72634146,44.0372093 2.72634146,42.6306977 C2.72634146,41.224186 3.88195122,40.0744186 5.29560976,40.0744186 C6.70926829,40.0744186 7.86487805,41.224186 7.86487805,42.6306977 C7.86487805,44.0372093 6.70926829,45.1869767 5.29560976,45.1869767 Z"/>
    <path d="M29.3165854,21.7674419 L20.7112195,21.7786047 L20.7112195,26.187907 L27.644878,26.187907 L32.637561,35.575814 L37.7985366,35.575814 L32.4917073,25.5739535 C35.0721951,24.4911628 36.8,22.0688372 36.8336585,19.0995349 C36.7887805,15.0586047 33.602439,12.0223256 29.395122,12.0223256 L20.7112195,12.0223256 L20.7112195,16.4204651 L29.3165854,16.4316279 C31.0556098,16.4316279 32.1439024,17.4586047 32.177561,19.0995349 C32.1326829,20.7404651 31.0443902,21.7674419 29.3165854,21.7674419"/>
  </g>
</svg>