<svg class="logo-text" width="150" viewBox="0 0 235 47" version="1.1" xmlns="http://www.w3.org/2000/svg" xmlns:xlink="http://www.w3.org/1999/xlink"><g class="logo-text-fill" fill="#1C355E" fill-rule="nonzero" transform="translate(5 12)"><polygon id="Path" points="4.92085011 4.44778523 4.92085011 10.1684564 14.109038 10.1684564 14.109038 14.226085 4.92085011 14.226085 4.92085011 23.6776286 0.375525727 23.6776286 0.375525727 0.3901566 15.713557 0.3901566 15.713557 4.44778523"></polygon><path d="M32.1586577,23.6776286 L30.7882327,19.5565996 L22.4974049,19.5565996 L21.0928412,23.6776286 L16.3475615,23.6776286 L24.8188367,0.3901566 L28.3838926,0.3901566 L36.8893065,23.6776286 L32.1586577,23.6776286 Z M26.7110962,7.25691275 L23.7849217,15.7330649 L29.5738702,15.7330649 L26.7110962,7.25691275 Z" id="Shape"></path><path d="M47.3991499,23.8727069 C43.8682327,23.8727069 41.185906,23.1216555 38.898613,20.8002237 L41.8247875,17.8740492 C43.2878747,19.3371365 45.2923043,19.8248322 47.4527964,19.8248322 C50.135123,19.8248322 51.5738255,18.8055481 51.5738255,16.9425503 C51.6164234,16.2199934 51.3546819,15.512584 50.8520358,14.9917673 C50.3936018,14.567472 49.8766443,14.338255 48.7939597,14.1724385 L45.9799553,13.7822819 C43.9852796,13.4896644 42.5124385,12.8654139 41.4638926,11.8314989 C40.3519463,10.7195526 39.7959732,9.21744966 39.7959732,7.25203579 C39.7959732,3.10174497 42.8733333,0.190201342 47.9063535,0.190201342 C51.1153915,0.190201342 53.4368233,0.975391499 55.4314989,2.90178971 L52.554094,5.74993289 C51.0910067,4.34049217 49.3157942,4.14541387 47.7795526,4.14541387 C45.3410738,4.14541387 44.1803579,5.48657718 44.1803579,7.07158837 C44.1666735,7.69918079 44.4159935,8.30391447 44.8680089,8.73950783 C45.4795509,9.25241872 46.2299775,9.57160474 47.0236242,9.65637584 L49.7742282,10.0465324 C51.9005817,10.3391499 53.241745,10.9292617 54.2220134,11.8461298 C55.4656376,13.0214765 56.0216107,14.7235347 56.0216107,16.7864877 C56.0216107,21.2976734 52.2565996,23.8483221 47.384519,23.8483221" id="Path"></path><polygon id="Path" points="70.4183893 4.44778523 70.4183893 23.6776286 65.8730649 23.6776286 65.8730649 4.44778523 59.7914989 4.44778523 59.7914989 0.3901566 76.5048322 0.3901566 76.5048322 4.44778523"></polygon><path d="M102.567293,23.6776286 L98.0219687,14.3870246 L94.7544072,14.3870246 L94.7544072,23.6776286 L90.2090828,23.6776286 L90.2090828,0.3901566 L99.3338702,0.3901566 C104.074273,0.3901566 106.888277,3.62845638 106.888277,7.52026846 C106.967524,10.2715358 105.242332,12.752488 102.63557,13.6359732 L107.834407,23.6776286 L102.567293,23.6776286 Z M99.0363758,4.44778523 L94.7544072,4.44778523 L94.7544072,10.5927517 L99.0363758,10.5927517 C101.031051,10.5927517 102.342953,9.31986577 102.342953,7.52026846 C102.342953,5.72067114 101.031051,4.44778523 99.0363758,4.44778523 L99.0363758,4.44778523 Z" id="Shape"></path><path d="M126.049843,23.6776286 L124.679418,19.5565996 L116.388591,19.5565996 L114.984027,23.6776286 L110.253378,23.6776286 L118.724653,0.3901566 L122.299463,0.3901566 L130.8,23.6776286 L126.049843,23.6776286 Z M120.62179,7.25691275 L117.695615,15.7281879 L123.484564,15.7281879 L120.62179,7.25691275 Z" id="Shape"></path><path d="M149.434855,21.453736 C147.898613,22.9899776 145.703982,23.6776286 143.285011,23.6776286 L134.882013,23.6776286 L134.882013,0.3901566 L143.27038,0.3901566 C145.708859,0.3901566 147.883982,1.07780761 149.420224,2.61404922 C152.034273,5.22809843 151.775794,8.43713647 151.775794,11.933915 C151.775794,15.4306935 152.034273,18.8348098 149.420224,21.453736 M146.245324,5.8864877 C145.460134,4.93548098 144.416465,4.44778523 142.831454,4.44778523 L139.417584,4.44778523 L139.417584,19.6346309 L142.831454,19.6346309 C144.401834,19.6346309 145.445503,19.1469351 146.245324,18.1715436 C147.098792,17.1278747 147.220716,15.4599553 147.220716,11.9241611 C147.220716,8.38836689 147.093915,6.92040268 146.245324,5.87673378" id="Shape"></path><rect id="Rectangle" x="157.637897" y="0.3901566" width="4.54532438" height="23.287472"></rect><path d="M177.033557,23.8727069 C172.259016,23.8727069 168.464743,20.6344072 168.464743,15.6940492 L168.464743,0.3901566 L173.019821,0.3901566 L173.019821,15.5087248 C173.019821,18.1910515 174.590201,19.7955705 177.043311,19.7955705 C179.496421,19.7955705 181.10094,18.1910515 181.10094,15.5087248 L181.10094,0.3901566 L185.612125,0.3901566 L185.612125,15.6940492 C185.612125,20.6344072 181.817852,23.8727069 177.043311,23.8727069" id="Path"></path><path d="M198.292215,23.8727069 C194.756421,23.8727069 192.078971,23.1216555 189.786801,20.8002237 L192.712975,17.8740492 C194.176063,19.3371365 196.180492,19.8248322 198.336107,19.8248322 C201.018434,19.8248322 202.457136,18.8055481 202.457136,16.9425503 C202.499231,16.220978 202.239552,15.5143669 201.740224,14.9917673 C201.28179,14.567472 200.764832,14.338255 199.677271,14.1724385 L196.863266,13.7822819 C194.868591,13.4896644 193.400626,12.8654139 192.352081,11.8314989 C191.240134,10.7195526 190.684161,9.21744966 190.684161,7.25203579 C190.684161,3.10174497 193.756644,0.190201342 198.794541,0.190201342 C201.998702,0.190201342 204.320134,0.975391499 206.31481,2.90178971 L203.437405,5.74993289 C201.974318,4.34049217 200.199105,4.14541387 198.662864,4.14541387 C196.224385,4.14541387 195.068546,5.48657718 195.068546,7.07158837 C195.05478,7.69822777 195.3021,8.30239474 195.75132,8.73950783 C196.364205,9.25330569 197.116458,9.5725461 197.911812,9.65637584 L200.657539,10.0465324 C202.783893,10.3391499 204.125056,10.9292617 205.105324,11.8461298 C206.348949,13.0214765 206.904922,14.7235347 206.904922,16.7864877 C206.904922,21.2976734 203.144787,23.8483221 198.272707,23.8483221" id="Path"></path><path d="M210.811365,20.419821 L210.811365,20.419821 C210.881979,18.5194574 212.443045,17.0153203 214.34472,17.0153203 C216.246396,17.0153203 217.807462,18.5194574 217.878076,20.419821 L217.878076,20.419821 C217.807462,22.3201847 216.246396,23.8243218 214.34472,23.8243218 C212.443045,23.8243218 210.881979,22.3201847 210.811365,20.419821 L210.811365,20.419821 Z M217.507427,20.419821 L217.507427,20.419821 C217.507427,18.669066 216.08816,17.2497987 214.337405,17.2497987 C212.58665,17.2497987 211.167383,18.669066 211.167383,20.419821 L211.167383,20.419821 C211.167383,22.170576 212.58665,23.5898434 214.337405,23.5898434 C216.08816,23.5898434 217.507427,22.170576 217.507427,20.419821 Z M212.91821,18.469038 L214.566622,18.469038 C214.978834,18.4459432 215.38356,18.5861081 215.693199,18.8591946 C215.895935,19.0673407 216.005118,19.3491019 215.99557,19.6395078 L215.99557,19.6395078 C216.012817,20.1695629 215.650132,20.6367504 215.132349,20.7514541 L216.10774,22.146264 L215.264027,22.146264 L214.366667,20.8685011 L213.596107,20.8685011 L213.596107,22.146264 L212.893826,22.146264 L212.91821,18.469038 Z M214.53736,20.2735123 C214.995794,20.2735123 215.268904,20.0491723 215.268904,19.6980313 L215.268904,19.6980313 C215.268904,19.3273826 214.995794,19.1225503 214.53736,19.1225503 L213.620492,19.1225503 L213.620492,20.2930201 L214.53736,20.2735123 Z" id="Shape"></path></g></svg>